<?xml version="1.0" encoding="UTF-8" standalone="no"?>
<!-- Created with Inkscape (http://www.inkscape.org/) -->

<svg
   xmlns:dc="http://purl.org/dc/elements/1.1/"
   xmlns:cc="http://creativecommons.org/ns#"
   xmlns:rdf="http://www.w3.org/1999/02/22-rdf-syntax-ns#"
   xmlns:svg="http://www.w3.org/2000/svg"
   xmlns="http://www.w3.org/2000/svg"
   xmlns:sodipodi="http://sodipodi.sourceforge.net/DTD/sodipodi-0.dtd"
   xmlns:inkscape="http://www.inkscape.org/namespaces/inkscape"
   width="310"
   height="360"
   id="svg2"
   sodipodi:version="0.32"
   inkscape:version="0.91 r13725"
   version="1.0"
   sodipodi:docname="NatufianSpread.svg"
   inkscape:output_extension="org.inkscape.output.svg.inkscape">
  <defs
     id="defs4" />
  <sodipodi:namedview
     id="base"
     pagecolor="#ffffff"
     bordercolor="#666666"
     borderopacity="1.0"
     inkscape:pageopacity="0.0"
     inkscape:pageshadow="2"
     inkscape:zoom="2.1055556"
     inkscape:cx="155"
     inkscape:cy="180"
     inkscape:document-units="px"
     inkscape:current-layer="layer1"
     showguides="true"
     inkscape:guide-bbox="true"
     inkscape:window-width="1280"
     inkscape:window-height="975"
     inkscape:window-x="0"
     inkscape:window-y="0"
     borderlayer="true"
     width="310px"
     height="360px"
     showgrid="false"
     inkscape:window-maximized="1" />
  <metadata
     id="metadata7">
    <rdf:RDF>
      <cc:Work
         rdf:about="">
        <dc:format>image/svg+xml</dc:format>
        <dc:type
           rdf:resource="http://purl.org/dc/dcmitype/StillImage" />
      </cc:Work>
    </rdf:RDF>
  </metadata>
  <g
     inkscape:label="Capa 1"
     inkscape:groupmode="layer"
     id="layer1"
     transform="translate(-207.57143,-283.36218)">
    <rect
       style="opacity:1;fill:#c6ecff;fill-opacity:1;fill-rule:evenodd;stroke:#000000;stroke-width:1px;stroke-linecap:butt;stroke-linejoin:miter;stroke-opacity:1"
       id="rect2221"
       width="317.85715"
       height="372.14285"
       x="204.66353"
       y="276.26065" />
    <path
       style="opacity:1;fill:#fefee9;fill-opacity:1;fill-rule:evenodd;stroke:#0978ab;stroke-width:1;stroke-linecap:butt;stroke-linejoin:miter;stroke-miterlimit:4;stroke-dasharray:none;stroke-opacity:1"
       d="M 204.67692,276.26065 L 204.67692,367.76065 C 204.91319,367.48773 205.1258,367.21802 205.36442,366.9794 C 207.16589,365.17793 209.55386,365.5419 214.67692,365.5419 C 219.00997,365.54191 219.59118,365.24102 223.23942,363.4169 C 227.74096,361.16613 225.36279,366.26147 229.67692,364.1044 C 231.20995,363.33789 231.08317,356.55095 231.08317,354.1044 C 231.08317,351.1507 233.40175,347.04883 233.95817,344.82315 C 234.81744,341.38607 238.84355,342.13825 241.08317,342.69815 C 243.98126,343.42268 247.32761,343.4169 251.08317,343.4169 C 255.1545,343.4169 255.54787,345.72535 257.52067,347.69815 C 259.16379,349.34127 265.32109,349.08274 266.80192,349.82315 C 269.37252,351.10846 272.78867,352.9349 274.67692,354.82315 C 277.04485,357.19109 278.76994,362.29045 279.67692,364.1044 C 281.12754,367.00566 287.22279,367.07115 288.95817,370.5419 C 290.22413,373.07384 297.64925,369.82315 299.67692,369.82315 C 303.32664,369.82316 306.99218,369.77559 309.67692,369.1044 C 312.80021,368.32359 315.811,369.19009 319.67692,368.4169 C 323.49465,367.65336 325.61173,366.01334 327.52067,364.1044 C 331.21337,360.41171 329.55079,363.13679 333.98942,358.69815 C 335.68798,356.9996 337.73917,355.28182 339.67692,352.69815 C 341.7241,349.96859 345.3366,348.00791 347.52067,346.26065 C 350.62599,343.7764 354.3129,347.53177 356.08317,348.4169 C 359.31171,350.03117 363.29858,350.38482 366.80192,351.26065 C 369.39553,351.90905 367.96858,355.6018 373.95817,354.1044 C 375.90589,353.61748 379.0786,348.89479 379.67692,347.69815 C 381.51341,344.02518 383.55742,343.50928 386.80192,342.69815 C 389.75397,341.96014 391.41718,348.28418 391.80192,349.82315 C 392.76143,353.66117 390.95289,353.68649 387.52067,356.26065 C 384.99415,358.15555 384.37319,360.12689 382.52067,361.9794 C 381.84541,362.48585 386.08317,369.84477 386.08317,372.69815 C 386.08317,375.19116 382.73845,378.88662 381.80192,379.82315 C 381.13358,380.49149 383.27197,383.25935 381.27067,385.26065 C 377.66265,388.86866 379.18535,390.60651 381.80192,391.26065 C 386.20753,392.36205 383.79727,396.09975 386.80192,399.1044 C 387.3258,399.62828 383.23942,405.90432 383.23942,408.4169 C 383.23942,411.63291 383.82279,415.33363 385.36442,418.4169 C 387.53762,422.76332 386.82163,424.11017 382.52067,426.26065 C 378.49348,428.27424 378.50862,429.46509 377.52067,433.4169 C 376.88288,435.96808 377.6744,439.92701 376.80192,443.4169 C 375.96785,446.75321 373.45317,447.95816 371.80192,451.26065 C 369.9061,455.0523 370.33039,457.73217 368.23942,459.82315 C 366.07559,461.98697 365.82333,465.11424 363.95817,466.9794 C 362.67693,468.26064 361.97783,474.47133 361.08317,476.26065 C 359.08531,480.25638 362.21295,480.72303 359.67692,484.1044 C 357.30679,487.26458 357.31238,483.50003 356.08317,488.4169 C 355.35864,491.315 355.36442,494.66134 355.36442,498.4169 C 355.36441,500.28961 352.04494,505.05585 351.08317,506.9794 C 349.41639,510.31295 349.49819,513.74309 348.23942,516.26065 C 346.6689,519.40167 345.64131,520.73813 343.95817,524.1044 C 341.74826,528.52422 340.71078,528.07054 337.52067,531.26065 C 334.29253,534.48879 332.18192,536.08628 328.95817,537.69815 C 326.07349,539.1405 323.86023,540.56638 321.08317,541.26065 C 317.75149,542.09357 316.67231,541.48606 313.52067,540.69815 C 311.64076,540.22817 309.1229,541.84089 306.80192,541.26065 C 305.60012,540.9602 304.36504,536.13441 301.80192,541.26065 C 300.67165,543.52118 291.78429,541.43593 291.08317,541.26065 C 288.53469,540.62353 289.91015,536.26065 284.67692,536.26065 C 283.51789,536.26065 280.96879,539.82315 278.23942,539.82315 C 276.13206,539.82314 270.07185,536.17551 269.33317,534.69815 C 268.3757,532.78322 269.79765,528.79864 266.52067,527.9794 C 264.52301,527.47998 262.40666,528.58603 260.95817,528.94815 C 256.6964,527.88272 256.29884,527.20519 252.52067,526.26065 C 247.98953,525.12786 246.55145,526.02651 246.08317,526.26065 C 245.9136,526.34543 241.16838,529.07742 239.67692,529.82315 C 236.07545,531.62387 231.09796,530.19075 236.08317,527.69815 C 238.64753,526.41597 230.30211,529.11226 227.52067,528.4169 C 226.52387,528.16771 224.77818,531.9519 223.89567,531.51065 C 220.36982,530.62919 221.52805,533.69077 218.95817,536.26065 C 218.58791,536.63091 211.32624,536.49849 210.36442,536.9794 C 208.79843,537.76239 207.87503,542.8491 205.36442,544.1044 C 205.11436,544.22943 204.90839,544.35674 204.67692,544.44815 L 204.67692,648.4169 L 314.98942,648.4169 C 315.02744,647.3139 316.8151,647.32315 317.86442,647.32315 C 318.30032,647.32314 316.46951,642.00774 316.45817,641.9794 C 315.94548,640.69768 313.44907,640.0328 312.52067,639.1044 C 311.16294,637.74666 309.65564,636.21808 308.95817,634.82315 C 308.24837,633.40354 306.17413,631.7361 305.02067,630.19815 C 303.83871,628.62221 303.49483,626.58036 302.17692,624.82315 C 300.76257,622.93735 299.03302,622.12911 298.23942,620.5419 C 297.3789,618.82087 297.26042,617.14641 296.45817,615.5419 C 295.5221,613.66977 293.73039,613.33635 292.52067,610.9169 C 291.44756,608.7707 291.08317,606.56666 291.08317,604.1044 C 291.08317,601.69785 290.58221,599.94433 290.02067,597.69815 C 289.43306,595.34773 288.89213,594.61825 287.17692,593.76065 C 285.26125,592.80282 284.55775,593.29773 283.23942,591.9794 C 282.54771,591.28769 282.81177,587.76882 282.52067,586.6044 C 281.84307,583.894 282.7429,583.66516 284.67692,582.69815 C 286.83307,581.62008 286.68635,580.45462 286.08317,578.0419 C 285.7638,576.76442 283.14481,575.93274 286.08317,575.19815 C 286.31416,575.14041 286.56382,575.19815 286.80192,575.19815 C 288.12671,574.86696 290.67993,579.41991 291.08317,579.82315 C 292.19072,580.93069 292.16145,584.10503 292.52067,585.5419 C 293.00149,587.46519 292.83555,588.58267 293.23942,590.19815 C 293.76398,592.29641 293.94452,592.5862 295.36442,594.4794 C 296.45803,595.93755 297.21602,597.80761 297.86442,599.1044 C 298.54558,600.4667 300.21592,601.11215 301.08317,601.9794 C 302.20788,603.10411 303.27584,604.17724 303.95817,605.5419 C 304.55884,606.74324 306.83591,608.56638 307.52067,609.4794 C 308.67102,611.01319 308.23942,613.32431 308.23942,615.19815 C 308.23942,617.2142 308.27872,618.83925 308.95817,620.19815 C 309.81414,621.91009 310.70637,622.97221 311.08317,624.4794 C 311.34763,625.53723 313.86279,627.60277 314.67692,628.4169 C 316.45251,630.1925 317.69124,632.14997 319.30192,633.76065 C 320.76206,635.22078 321.4896,637.38583 322.86442,638.76065 C 324.0358,639.93203 324.68678,641.64551 325.73942,642.69815 C 326.91769,643.87644 328.13753,645.09626 328.95817,645.9169 C 330.05929,647.01802 332.10434,647.3491 333.58317,646.9794 C 335.43368,646.51677 336.43509,647.58567 337.20817,648.4169 L 338.20817,648.4169 C 338.51594,647.48686 338.61918,645.50589 339.30192,644.82315 C 340.8135,643.31156 341.62696,643.46047 342.17692,641.26065 C 342.61209,639.51998 342.17692,638.16219 342.17692,636.26065 C 342.17693,634.23684 342.17692,632.22196 342.17692,630.19815 C 342.17693,627.14043 341.06578,627.71554 342.86442,625.9169 C 344.14594,624.63538 345.43775,623.71857 346.45817,622.69815 C 347.49613,621.6602 346.45817,619.14085 346.45817,617.69815 C 346.45817,616.04901 347.58756,613.95279 348.23942,612.32315 C 348.82341,610.86314 348.23942,607.85457 348.23942,606.26065 C 348.23942,604.50538 348.27456,602.49508 348.58317,601.26065 C 348.83784,600.24198 351.04817,599.54942 351.80192,598.0419 C 352.53946,596.56684 353.80072,594.49804 353.95817,594.1044 C 354.50964,592.72573 355.89704,591.44679 356.80192,590.5419 C 358.21852,589.12531 357.13981,588.23868 359.30192,587.69815 C 361.15342,587.23529 359.42105,591.5654 358.95817,593.4169 C 358.44295,595.47779 357.86442,596.46901 357.86442,599.1044 C 357.86441,600.60158 355.83802,603.53219 355.36442,604.4794 C 354.39563,606.41696 354.46513,606.19472 355.02067,608.4169 C 355.50472,610.35311 354.64722,612.03418 354.30192,613.76065 C 353.87686,615.88595 353.23942,617.13658 353.23942,619.4794 C 353.23942,621.7589 352.86442,623.10232 352.86442,625.19815 C 352.86441,626.54715 351.80192,628.20027 351.80192,630.19815 C 351.80192,631.16702 350.3982,633.0056 350.02067,633.76065 C 348.84596,636.11006 348.6356,636.40785 348.95817,637.69815 C 349.40604,639.48963 353.21828,636.61497 353.23942,636.6044 C 354.416,636.0161 356.53813,636.24847 357.86442,635.9169 C 359.90872,635.40583 361.42469,636.94592 362.17692,637.69815 C 363.07119,638.59242 365.16622,639.2812 366.08317,640.19815 C 367.61149,641.72648 368.75778,642.64657 369.30192,644.82315 C 369.59465,645.99403 370.37921,647.11189 370.95817,648.4169 L 522.52067,648.4169 L 522.52067,276.26065 L 204.67692,276.26065 z "
       id="rect3209" />
    <path
       style="opacity:1;fill:#fc8d59;fill-opacity:1;fill-rule:evenodd;stroke:#000000;stroke-width:0;stroke-linecap:butt;stroke-linejoin:miter;stroke-miterlimit:4;stroke-dasharray:none;stroke-opacity:1"
       d="M 317.45817,541.5419 C 317.53462,541.81317 317.60203,541.86732 317.67692,542.1669 C 322.47515,546.90199 327.03625,550.94161 331.36442,554.38565 C 333.5285,556.10767 335.6261,557.68027 337.67692,559.1044 C 339.72774,560.52853 341.73652,561.80532 343.67692,562.94815 C 345.61732,564.09098 347.50036,565.10128 349.33317,565.9794 C 351.16598,566.85752 352.94886,567.63066 354.67692,568.26065 C 356.40498,568.89064 358.08202,569.39346 359.70817,569.7919 C 361.33432,570.19034 362.89985,570.48342 364.42692,570.6669 C 365.95399,570.85038 367.4336,570.93179 368.86442,570.9169 C 370.29524,570.90201 371.68325,570.76983 373.02067,570.57315 C 374.35809,570.37647 375.64882,570.09128 376.89567,569.7294 C 378.14252,569.36752 379.33031,568.9274 380.48942,568.4169 C 382.80764,567.3959 384.97387,566.08912 386.95817,564.57315 C 388.94247,563.05718 390.75385,561.3264 392.42692,559.44815 C 394.09999,557.5699 395.63615,555.556 397.02067,553.44815 C 398.40519,551.3403 399.65201,549.15293 400.77067,546.94815 C 401.88933,544.74337 402.86392,542.52342 403.73942,540.3544 C 404.61492,538.18538 405.36565,536.07373 406.02067,534.07315 C 407.33071,530.072 408.23766,526.54195 408.80192,524.01065 C 409.36618,521.47935 409.61442,519.94815 409.61442,519.94815 C 408.16233,518.08568 406.86068,516.19842 405.70817,514.2919 C 404.55566,512.38538 403.54625,510.45463 402.67692,508.51065 C 401.80759,506.56667 401.06072,504.61048 400.45817,502.63565 C 399.85562,500.66082 399.40409,498.666 399.05192,496.6669 C 398.69975,494.6678 398.45136,492.65241 398.33317,490.63565 C 398.21498,488.61889 398.20253,486.60098 398.30192,484.57315 C 398.40131,482.54532 398.62635,480.5117 398.92692,478.4794 C 399.22749,476.4471 399.62907,474.41582 400.11442,472.38565 C 401.08511,468.32531 402.40926,464.2729 404.02067,460.26065 C 405.63208,456.2484 407.52474,452.26578 409.64567,448.3544 C 411.7666,444.44302 414.11518,440.61214 416.61442,436.8544 C 419.11366,433.09666 421.74307,429.43697 424.48942,425.88565 C 427.23577,422.33433 430.09591,418.89652 432.95817,415.6044 C 435.82043,412.31228 438.70495,409.14705 441.55192,406.1669 C 447.24587,400.20661 452.76884,394.93764 457.61442,390.5419 C 462.46,386.14616 466.63558,382.63838 469.58317,380.2294 C 472.53076,377.82042 474.23942,376.51065 474.23942,376.51065 C 472.28225,373.16452 470.42503,370.19595 468.64567,367.57315 C 466.86631,364.95036 465.19211,362.66618 463.58317,360.69815 C 461.97423,358.73013 460.43535,357.07996 458.98942,355.69815 C 457.54349,354.31635 456.18598,353.18731 454.89567,352.32315 C 453.60536,351.459 452.38151,350.86321 451.23942,350.44815 C 450.09733,350.03309 449.02194,349.79518 448.02067,349.76065 C 447.0194,349.72613 446.07602,349.88946 445.20817,350.1669 C 444.34032,350.44435 443.54375,350.86479 442.80192,351.38565 C 442.06009,351.90651 441.39388,352.50244 440.77067,353.19815 C 440.14746,353.89387 439.5639,354.6774 439.05192,355.4794 C 438.02796,357.08342 437.23787,358.83033 436.61442,360.44815 C 435.36751,363.6838 434.86442,366.38565 434.86442,366.38565 C 432.46531,370.99448 430.06832,375.29297 427.70817,379.2919 C 425.34802,383.29083 423.01455,387.0162 420.70817,390.44815 C 418.40179,393.8801 416.13349,397.04026 413.89567,399.94815 C 411.65785,402.85604 409.45639,405.49017 407.30192,407.9169 C 405.14745,410.34363 403.04573,412.55341 400.98942,414.5419 C 398.93311,416.53039 396.93278,418.29249 394.98942,419.88565 C 393.04606,421.47881 391.14878,422.89491 389.33317,424.13565 C 387.51756,425.37639 385.75624,426.45442 384.08317,427.38565 C 382.4101,428.31688 380.81764,429.09601 379.30192,429.76065 C 379.0567,429.86818 378.8553,429.9407 378.61442,430.0419 C 378.23168,430.95823 377.90784,431.8682 377.52067,433.4169 C 376.88288,435.96808 377.6744,439.92701 376.80192,443.4169 C 375.96785,446.75321 373.45317,447.95816 371.80192,451.26065 C 369.9061,455.0523 370.33039,457.73217 368.23942,459.82315 C 366.07559,461.98697 365.82333,465.11424 363.95817,466.9794 C 362.67693,468.26064 361.97783,474.47133 361.08317,476.26065 C 359.08531,480.25638 362.21295,480.72303 359.67692,484.1044 C 357.30679,487.26458 357.31238,483.50003 356.08317,488.4169 C 355.35864,491.315 355.36442,494.66134 355.36442,498.4169 C 355.36441,500.28961 352.04494,505.05585 351.08317,506.9794 C 349.41639,510.31295 349.49819,513.74309 348.23942,516.26065 C 346.6689,519.40167 345.64131,520.73813 343.95817,524.1044 C 341.74826,528.52422 340.71078,528.07054 337.52067,531.26065 C 334.29253,534.48879 332.18192,536.08628 328.95817,537.69815 C 326.07349,539.1405 323.86023,540.56638 321.08317,541.26065 C 319.51261,541.65329 318.48069,541.65745 317.45817,541.5419 z "
       id="path32379" />
    <path
       style="fill:#fffed8;fill-opacity:1;fill-rule:evenodd;stroke:#0978ab;stroke-width:1;stroke-linecap:butt;stroke-linejoin:miter;stroke-miterlimit:4;stroke-dasharray:none;stroke-opacity:1"
       d="M 279.66352,404.83208 C 283.64859,409.20473 284.59107,406.65402 288.23495,404.83208 C 292.15097,402.87407 289.98202,403.40351 296.0921,403.40351 C 300.29804,403.40351 300.91999,401.23481 301.80638,397.68922 C 302.83955,393.55656 299.93682,397.68922 306.0921,397.68922 C 310.72873,397.68922 313.3235,396.97494 317.52067,396.97494 C 320.44019,396.97494 324.60631,395.21783 326.80638,394.11779 C 330.39906,392.32145 333.2046,390.55395 336.0921,389.83208 C 337.94301,389.36935 341.89188,385.86076 343.94924,384.83208 C 346.25274,383.68033 342.16203,390.63602 339.66353,391.26065 C 336.43934,392.0667 335.49358,395.51742 332.52067,396.26065 C 329.12223,397.11026 328.54358,400.74043 328.23496,401.97494 C 327.66622,404.24989 330.52336,406.12856 331.0921,408.40351 C 331.79462,411.21358 325.33074,407.67745 322.52067,406.97494 C 322.04349,406.85564 317.10659,412.38902 316.80638,412.68922 C 314.20301,415.2926 314.64192,417.33748 310.37781,418.40351 C 306.89526,419.27415 303.36305,419.11779 299.66352,419.11779 C 296.89111,419.11779 290.69743,420.98856 287.89576,419.327 C 286.19247,418.31685 283.85432,412.67269 282.89576,410.75557 C 281.64009,408.24423 281.62702,408.10457 279.66352,404.83208 z "
       id="path3194"
       sodipodi:nodetypes="cssssssssssssssssssc" />
    <path
       style="fill:none;fill-rule:evenodd;stroke:#0978ab;stroke-width:1px;stroke-linecap:butt;stroke-linejoin:miter;stroke-opacity:1"
       d="m 222.69308,531.39477 c 0.92993,1.21775 3.56617,4.89741 3.56617,8.1425 0,1.52202 2.53389,5.23046 3.53554,6.56599 2.2521,3.00281 2.52538,2.31831 2.52538,4.54569 0,3.19407 2.00618,4.53156 3.53553,6.06091 0.85361,0.85361 0,6.75773 0,8.08122 0,3.768 1.69511,3.89529 3.03046,6.56599 1.55892,3.11784 1.29932,4.97847 5.05076,4.04061 0.63449,-0.15862 3.01889,5.37206 3.53554,6.06092 1.41166,1.88222 1.51522,5.08594 1.51522,7.57614 0,1.84004 -0.50507,4.98739 -0.50507,7.57615 0,3.1113 -0.94419,3.90868 -2.02031,6.06091 -1.42332,2.84665 -0.69626,4.6684 0.50508,7.07107 1.07885,2.1577 -2.47654,4.44801 -3.03046,5.55584 -0.86597,1.73195 -2.1054,3.70572 -3.03046,5.55584 -1.22392,2.44784 -2.40846,3.06785 -3.03045,5.55584 -0.61168,2.44669 -1.43479,3.21378 -2.02031,5.55584 -0.64579,2.58317 1.01015,3.72831 1.01015,6.56599 0,1.42099 -2.52624,3.53726 -3.03045,4.54568 -1.21523,2.43045 -0.87429,3.3022 0.50507,6.06092 1.12582,2.25164 2.52538,3.59974 2.52538,6.56599 l 0,9.09137 c 0,1.73336 -0.37865,2.96695 -1.01015,4.54569"
       id="path17809"
       inkscape:connector-curvature="0"
       sodipodi:nodetypes="csssssssssssssssssssssc" />
    <path
       style="fill:none;fill-rule:evenodd;stroke:#0978ab;stroke-width:1px;stroke-linecap:butt;stroke-linejoin:miter;stroke-opacity:1"
       d="m 244.442,527.41544 c 0,1.20173 2.35513,5.885 3.03046,8.58629 0.90982,3.63929 0.70542,4.24937 0,7.07107 -0.63218,2.52871 0,5.959 0,8.5863 0,1.8788 -3.45082,3.24064 -5.05077,4.04061 -2.17176,1.08588 3.45171,3.70531 4.04061,6.06091 0.85787,3.43145 1.1264,1.28274 -0.50507,4.54569 -1.0324,2.06479 -1.39467,3.05327 -2.02031,5.55584 -0.58895,2.35579 1.07728,3.66979 2.02031,5.55584"
       id="path18780"
       inkscape:connector-curvature="0" />
    <path
       style="fill:none;fill-rule:evenodd;stroke:#0978ab;stroke-width:1px;stroke-linecap:butt;stroke-linejoin:miter;stroke-opacity:1"
       d="m 272.22119,537.51696 c -1.46256,1.99522 -4.52057,3.51043 -6.56599,5.55584 -1.86251,1.86252 -2.23372,2.85084 -5.55584,2.02031 -3.09284,-0.77321 -3.55148,1.57903 -4.04061,3.53553 -0.47619,1.90476 -3.66244,1.64214 -5.05076,3.03046 -1.7134,1.71339 -1.01015,5.28646 -1.01015,7.57614 0,2.64319 -2.20857,3.21873 -3.53554,4.54569 -0.59317,0.59317 2.97853,-0.95823 4.04061,-2.02031 1.07877,-1.07877 4.43916,-1.61486 6.06092,-2.0203 0.11979,-0.0299 5.23806,1.51523 7.07107,1.51523 2.1102,0 4.81523,-0.50508 7.57614,-0.50508 2.68891,0 5.08494,-3.0988 6.06092,-5.05076 1.41235,-2.82471 1.68569,-4.44784 1.51522,-8.08122 l -0.35714,-7.61204"
       id="path19751"
       inkscape:connector-curvature="0"
       sodipodi:nodetypes="cssssssscssssc" />
    <path
       style="fill:none;fill-rule:evenodd;stroke:#000000;stroke-width:1px;stroke-linecap:butt;stroke-linejoin:miter;stroke-opacity:0"
       d="M 470.71617,285.08036 C 473.02246,287.10308 474.75678,288.12421 474.75678,292.15142 C 474.75678,295.16343 473.21324,295.95365 470.71617,297.20219 C 468.08361,298.51847 467.45678,299.17529 466.17048,301.74787 C 465.28183,303.52519 463.77805,304.64539 462.63495,305.78848 C 460.92861,307.49483 458.83913,308.57415 457.58419,309.82909 C 455.4577,311.95558 456.44577,314.43891 453.54358,315.89001 C 451.857,316.7333 449.12321,316.90016 446.97759,316.90016 C 443.87191,316.90016 442.78648,317.48049 440.91667,318.41539 C 439.29958,319.22394 438.40192,321.40333 437.88621,323.46615 C 437.12777,326.49991 437.68213,328.20567 438.39129,331.0423 C 439.05985,333.71653 440.38795,335.4934 440.91667,337.60829 C 441.61134,340.38695 443.41423,342.54777 443.94713,344.67936 C 444.68985,347.65023 446.21435,349.70763 446.97759,352.76058 C 447.65154,355.45638 448.93852,357.06878 449.50297,359.32657 C 450.33532,362.65596 447.99009,363.86285 447.48266,365.89256 C 446.75306,368.81098 441.28704,365.37624 445.46236,370.94332 C 447.7064,373.93538 446.90024,375.19779 450.51312,377.00423 C 452.22853,377.86194 456.25289,377.05022 458.08926,377.50931 C 460.90134,378.21233 463.28604,377.98518 465.66541,377.50931 C 468.888,376.86479 468.31316,374.94944 471.72632,377.50931 C 473.86393,379.11252 475.26411,379.02454 478.79739,379.02454 C 482.16888,379.02454 484.01452,380.11787 485.86846,381.04484 C 487.82688,382.02405 489.79459,383.00791 491.92937,384.0753 C 494.12156,385.17139 495.38919,386.31028 496.98014,387.10576 C 499.25192,388.24165 501.81904,389.85105 503.54613,391.14637 C 506.41017,393.2944 507.05852,394.13055 508.59689,397.20728 C 509.8273,399.66809 511.80284,401.31352 513.64765,403.77328 C 515.01508,405.59651 516.6062,406.51608 517.18319,408.82404 C 517.62668,410.59801 520.10341,412.64418 520.71872,413.8748 C 521.74211,415.92157 524.55966,417.71574 526.77964,419.93572 C 528.44432,421.6004 531.71431,423.06342 533.34563,423.47125"
       id="path20724" />
    <path
       style="fill:none;fill-rule:evenodd;stroke:#0978ab;stroke-width:1px;stroke-linecap:butt;stroke-linejoin:miter;stroke-opacity:1"
       d="M 515.16288,282.0499 C 513.24325,281.87568 510.21109,283.72757 508.09182,284.57528 C 505.586,285.57761 504.55628,285.56849 504.55628,289.12097 C 504.55628,291.70171 504.58676,294.29364 505.06136,296.19203 C 505.51378,298.00174 508.55261,299.83688 509.60704,301.2428 C 510.03562,301.81423 510.6172,302.25295 511.12227,302.75803 C 513.10324,304.739 515.44501,304.77833 518.19334,304.77833 C 520.97422,304.77833 523.77614,304.6588 526.27456,305.28341 C 529.41003,306.06727 532.70841,308.18172 534.86086,310.33417"
       id="path21697" />
    <path
       style="fill:#c6ecff;fill-opacity:1;fill-rule:evenodd;stroke:#0978ab;stroke-width:1px;stroke-linecap:butt;stroke-linejoin:miter;stroke-opacity:1"
       d="M 378.79229,492.6667 C 378.61239,493.0265 376.62113,487.36672 376.26691,485.59563 C 375.62136,482.36788 377.46086,482.98993 379.80244,483.57533 C 382.96529,484.36604 382.87735,487.06641 381.31767,488.62609 C 379.24046,490.7033 383.64818,488.78199 378.79229,492.6667 z "
       id="path22672" />
    <path
       style="fill:#c6ecff;fill-opacity:1;fill-rule:evenodd;stroke:#0978ab;stroke-width:1px;stroke-linecap:butt;stroke-linejoin:miter;stroke-opacity:1"
       d="M 377.27706,518.93067 C 375.10022,521.10751 373.74153,519.7235 373.74153,524.48651 C 373.74153,527.36284 372.73137,528.57199 372.73137,531.0525 C 372.73137,534.51308 374.45316,534.67999 373.23645,537.11341 C 371.89677,539.79277 372.46071,540.88336 374.75168,543.17433 C 376.39664,544.81929 378.28223,547.19499 377.27706,543.17433 C 376.56257,540.31635 376.26691,540.09151 376.26691,536.60834 C 376.26691,534.68875 379.33687,533.92492 379.80244,532.06265 C 380.48935,529.31501 380.26779,527.43751 379.29737,525.49666 C 378.33874,523.57941 378.32651,521.5543 377.27706,518.93067 z "
       id="path23643" />
    <path
       style="fill:none;fill-rule:evenodd;stroke:#0978ab;stroke-width:1px;stroke-linecap:butt;stroke-linejoin:miter;stroke-opacity:1"
       d="m 376.77198,519.43574 c -0.98888,-1.97777 -1.28481,-5.00651 0,-7.57614 1.191,-2.38199 2.47801,-3.34605 3.03046,-5.55584 0.68826,-2.75303 -0.67123,-5.38308 -1.51523,-7.07107 -0.79591,-1.59183 0,-5.74951 0,-7.57614"
       id="path24614"
       inkscape:connector-curvature="0"
       sodipodi:nodetypes="csssc" />
    <path
       style="fill:none;fill-rule:evenodd;stroke:#0978ab;stroke-width:1px;stroke-linecap:butt;stroke-linejoin:miter;stroke-opacity:1"
       d="M 470.21109,285.58543 C 476.17226,290.52692 475.46785,291.44035 471.22125,295.68696 C 467.87394,299.03427 466.31916,300.44037 464.15018,304.77833 C 462.01535,309.04798 459.14251,309.7429 457.07911,313.8697 C 455.6146,316.79873 448.19716,316.09019 444.95728,316.90016 C 439.89823,318.16493 437.88621,322.3811 437.88621,328.01184 C 437.88621,332.76988 441.92682,334.82488 441.92682,340.13367 C 441.92682,346.14594 444.90982,349.0352 445.96743,353.26565 C 448.00023,361.39684 448.8489,359.19397 445.96743,366.39764 C 443.65532,372.17792 444.74503,371.84735 450.00804,374.47885 C 454.33299,376.64133 462.03614,374.47885 467.18064,374.47885 C 470.98515,374.47885 473.81246,379.4198 478.29231,380.53977 C 482.61804,381.6212 485.99873,381.36252 490.41415,383.57023 C 494.32303,385.52467 497.03279,387.38462 501.52582,389.63114 C 504.1185,390.92748 509.00805,398.12352 511.62735,400.74282 C 514.87927,403.99474 515.72312,406.84511 519.70857,409.83419 C 523.59183,412.74664 526.9331,418.06888 529.81009,420.94587 C 532.23577,423.37155 535.91541,425.00868 537.89132,425.99663"
       id="path31399" />
    <path
       sodipodi:type="arc"
       style="opacity:1;fill:#dd0606;fill-opacity:1;stroke:#ff0000;stroke-width:1;stroke-miterlimit:4;stroke-dasharray:none;stroke-opacity:1"
       id="path34323"
       sodipodi:cx="144.45181"
       sodipodi:cy="271.93399"
       sodipodi:rx="3.0304577"
       sodipodi:ry="3.0304577"
       d="m 147.48227,271.93399 a 3.0304577,3.0304577 0 0 1 -3.03046,3.03046 3.0304577,3.0304577 0 0 1 -3.03045,-3.03046 3.0304577,3.0304577 0 0 1 3.03045,-3.03046 3.0304577,3.0304577 0 0 1 3.03046,3.03046 z"
       transform="translate(202.52067,273.26065)" />
    <path
       sodipodi:type="arc"
       style="opacity:1;fill:#dd0606;fill-opacity:1;stroke:#ff0000;stroke-width:1;stroke-miterlimit:4;stroke-dasharray:none;stroke-opacity:1"
       id="path35294"
       sodipodi:cx="144.45181"
       sodipodi:cy="271.93399"
       sodipodi:rx="3.0304577"
       sodipodi:ry="3.0304577"
       d="m 147.48227,271.93399 a 3.0304577,3.0304577 0 0 1 -3.03046,3.03046 3.0304577,3.0304577 0 0 1 -3.03045,-3.03046 3.0304577,3.0304577 0 0 1 3.03045,-3.03046 3.0304577,3.0304577 0 0 1 3.03046,3.03046 z"
       transform="translate(245.926,283.96952)" />
    <path
       sodipodi:type="arc"
       style="opacity:1;fill:#dd0606;fill-opacity:1;stroke:#ff0000;stroke-width:1;stroke-miterlimit:4;stroke-dasharray:none;stroke-opacity:1"
       id="path35296"
       sodipodi:cx="144.45181"
       sodipodi:cy="271.93399"
       sodipodi:rx="3.0304577"
       sodipodi:ry="3.0304577"
       d="m 147.48227,271.93399 a 3.0304577,3.0304577 0 0 1 -3.03046,3.03046 3.0304577,3.0304577 0 0 1 -3.03045,-3.03046 3.0304577,3.0304577 0 0 1 3.03045,-3.03046 3.0304577,3.0304577 0 0 1 3.03046,3.03046 z"
       transform="translate(255.926,246.46951)" />
    <path
       sodipodi:type="arc"
       style="opacity:1;fill:#dd0606;fill-opacity:1;stroke:#ff0000;stroke-width:1;stroke-miterlimit:4;stroke-dasharray:none;stroke-opacity:1"
       id="path35298"
       sodipodi:cx="144.45181"
       sodipodi:cy="271.93399"
       sodipodi:rx="3.0304577"
       sodipodi:ry="3.0304577"
       d="m 147.48227,271.93399 a 3.0304577,3.0304577 0 0 1 -3.03046,3.03046 3.0304577,3.0304577 0 0 1 -3.03045,-3.03046 3.0304577,3.0304577 0 0 1 3.03045,-3.03046 3.0304577,3.0304577 0 0 1 3.03046,3.03046 z"
       transform="translate(240.56886,218.25523)" />
    <path
       sodipodi:type="arc"
       style="opacity:1;fill:#dd0606;fill-opacity:1;stroke:#ff0000;stroke-width:1;stroke-miterlimit:4;stroke-dasharray:none;stroke-opacity:1"
       id="path35300"
       sodipodi:cx="144.45181"
       sodipodi:cy="271.93399"
       sodipodi:rx="3.0304577"
       sodipodi:ry="3.0304577"
       d="m 147.48227,271.93399 a 3.0304577,3.0304577 0 0 1 -3.03046,3.03046 3.0304577,3.0304577 0 0 1 -3.03045,-3.03046 3.0304577,3.0304577 0 0 1 3.03045,-3.03046 3.0304577,3.0304577 0 0 1 3.03046,3.03046 z"
       transform="translate(213.06886,225.39808)" />
    <path
       sodipodi:type="arc"
       style="opacity:1;fill:#dd0606;fill-opacity:1;stroke:#ff0000;stroke-width:1;stroke-miterlimit:4;stroke-dasharray:none;stroke-opacity:1"
       id="path35302"
       sodipodi:cx="144.45181"
       sodipodi:cy="271.93399"
       sodipodi:rx="3.0304577"
       sodipodi:ry="3.0304577"
       d="m 147.48227,271.93399 a 3.0304577,3.0304577 0 0 1 -3.03046,3.03046 3.0304577,3.0304577 0 0 1 -3.03045,-3.03046 3.0304577,3.0304577 0 0 1 3.03045,-3.03046 3.0304577,3.0304577 0 0 1 3.03046,3.03046 z"
       transform="translate(213.78314,216.82666)" />
    <path
       sodipodi:type="arc"
       style="opacity:1;fill:#dd0606;fill-opacity:1;stroke:#ff0000;stroke-width:1;stroke-miterlimit:4;stroke-dasharray:none;stroke-opacity:1"
       id="path35304"
       sodipodi:cx="144.45181"
       sodipodi:cy="271.93399"
       sodipodi:rx="3.0304577"
       sodipodi:ry="3.0304577"
       d="m 147.48227,271.93399 a 3.0304577,3.0304577 0 0 1 -3.03046,3.03046 3.0304577,3.0304577 0 0 1 -3.03045,-3.03046 3.0304577,3.0304577 0 0 1 3.03045,-3.03046 3.0304577,3.0304577 0 0 1 3.03046,3.03046 z"
       transform="translate(226.99743,210.04095)" />
    <path
       sodipodi:type="arc"
       style="opacity:1;fill:#dd0606;fill-opacity:1;stroke:#ff0000;stroke-width:1;stroke-miterlimit:4;stroke-dasharray:none;stroke-opacity:1"
       id="path35306"
       sodipodi:cx="144.45181"
       sodipodi:cy="271.93399"
       sodipodi:rx="3.0304577"
       sodipodi:ry="3.0304577"
       d="m 147.48227,271.93399 a 3.0304577,3.0304577 0 0 1 -3.03046,3.03046 3.0304577,3.0304577 0 0 1 -3.03045,-3.03046 3.0304577,3.0304577 0 0 1 3.03045,-3.03046 3.0304577,3.0304577 0 0 1 3.03046,3.03046 z"
       transform="translate(235.21171,200.04094)" />
    <path
       sodipodi:type="arc"
       style="opacity:1;fill:#dd0606;fill-opacity:1;stroke:#ff0000;stroke-width:1;stroke-miterlimit:4;stroke-dasharray:none;stroke-opacity:1"
       id="path35308"
       sodipodi:cx="144.45181"
       sodipodi:cy="271.93399"
       sodipodi:rx="3.0304577"
       sodipodi:ry="3.0304577"
       d="m 147.48227,271.93399 a 3.0304577,3.0304577 0 0 1 -3.03046,3.03046 3.0304577,3.0304577 0 0 1 -3.03045,-3.03046 3.0304577,3.0304577 0 0 1 3.03045,-3.03046 3.0304577,3.0304577 0 0 1 3.03046,3.03046 z"
       transform="translate(304.14029,96.826665)" />
    <path
       sodipodi:type="arc"
       style="opacity:1;fill:#dd0606;fill-opacity:1;stroke:#ff0000;stroke-width:1;stroke-miterlimit:4;stroke-dasharray:none;stroke-opacity:1"
       id="path35310"
       sodipodi:cx="144.45181"
       sodipodi:cy="271.93399"
       sodipodi:rx="3.0304577"
       sodipodi:ry="3.0304577"
       d="m 147.48227,271.93399 a 3.0304577,3.0304577 0 0 1 -3.03046,3.03046 3.0304577,3.0304577 0 0 1 -3.03045,-3.03046 3.0304577,3.0304577 0 0 1 3.03045,-3.03046 3.0304577,3.0304577 0 0 1 3.03046,3.03046 z"
       transform="translate(319.49743,108.25523)" />
    <text
       xml:space="preserve"
       style="font-size:12px;font-style:normal;font-weight:normal;fill:#000000;fill-opacity:1;stroke:none;stroke-width:1px;stroke-linecap:butt;stroke-linejoin:miter;stroke-opacity:1;font-family:Bitstream Vera Sans"
       x="397.16354"
       y="363.4035"
       id="text35312"><tspan
         sodipodi:role="line"
         id="tspan35314"
         x="397.16354"
         y="363.4035">Mureybet</tspan></text>
    <text
       xml:space="preserve"
       style="font-size:12px;font-style:normal;font-weight:normal;fill:#000000;fill-opacity:1;stroke:none;stroke-width:1px;stroke-linecap:butt;stroke-linejoin:miter;stroke-opacity:1;font-family:Bitstream Vera Sans"
       x="413.94925"
       y="392.68921"
       id="text35316"><tspan
         sodipodi:role="line"
         id="tspan35318"
         x="413.94925"
         y="392.68921">Abu Hurayra</tspan></text>
    <text
       xml:space="preserve"
       style="font-size:12px;font-style:normal;font-weight:normal;fill:#000000;fill-opacity:1;stroke:none;stroke-width:1px;stroke-linecap:butt;stroke-linejoin:miter;stroke-opacity:1;font-family:Bitstream Vera Sans"
       x="357.87781"
       y="448.04636"
       id="text35320"><tspan
         sodipodi:role="line"
         id="tspan35322"
         x="357.87781"
         y="448.04636">Eynan</tspan></text>
    <text
       xml:space="preserve"
       style="font-size:12px;font-style:normal;font-weight:normal;fill:#000000;fill-opacity:1;stroke:none;stroke-width:1px;stroke-linecap:butt;stroke-linejoin:miter;stroke-opacity:1;font-family:Bitstream Vera Sans"
       x="300.02069"
       y="457.33209"
       id="text35324"><tspan
         sodipodi:role="line"
         id="tspan35326"
         x="300.02069"
         y="457.33209">Hayomin</tspan></text>
    <text
       xml:space="preserve"
       style="font-size:12px;font-style:normal;font-weight:normal;fill:#000000;fill-opacity:1;stroke:none;stroke-width:1px;stroke-linecap:butt;stroke-linejoin:miter;stroke-opacity:1;font-family:Bitstream Vera Sans"
       x="278.94925"
       y="471.97491"
       id="text35328"><tspan
         sodipodi:role="line"
         id="tspan35330"
         x="278.94925"
         y="471.97491">Nahal Oren</tspan></text>
    <text
       xml:space="preserve"
       style="font-size:12px;font-style:normal;font-weight:normal;fill:#000000;fill-opacity:1;stroke:none;stroke-width:1px;stroke-linecap:butt;stroke-linejoin:miter;stroke-opacity:1;font-family:Bitstream Vera Sans"
       x="292.16354"
       y="491.97495"
       id="text35332"><tspan
         sodipodi:role="line"
         id="tspan35334"
         x="292.16354"
         y="491.97495">El Wad</tspan></text>
    <text
       xml:space="preserve"
       style="font-size:12px;font-style:normal;font-weight:normal;fill:#000000;fill-opacity:1;stroke:none;stroke-width:1px;stroke-linecap:butt;stroke-linejoin:miter;stroke-opacity:1;font-family:Bitstream Vera Sans"
       x="384.66351"
       y="485.54636"
       id="text35336"><tspan
         sodipodi:role="line"
         id="tspan35338"
         x="384.66351"
         y="485.54636">Ein Gev</tspan></text>
    <text
       xml:space="preserve"
       style="font-size:12px;font-style:normal;font-weight:normal;fill:#000000;fill-opacity:1;stroke:none;stroke-width:1px;stroke-linecap:butt;stroke-linejoin:miter;stroke-opacity:1;font-family:Bitstream Vera Sans"
       x="387.52066"
       y="510.90353"
       id="text35340"><tspan
         sodipodi:role="line"
         id="tspan35342"
         x="387.52066"
         y="510.90353">Wadi Uwainid</tspan></text>
    <text
       xml:space="preserve"
       style="font-size:12px;font-style:normal;font-weight:normal;fill:#000000;fill-opacity:1;stroke:none;stroke-width:1px;stroke-linecap:butt;stroke-linejoin:miter;stroke-opacity:1;font-family:Bitstream Vera Sans"
       x="324.66354"
       y="539.1178"
       id="text35344"><tspan
         sodipodi:role="line"
         id="tspan35346"
         x="324.66354"
         y="539.1178">Rosh Zin</tspan></text>
    <text
       xml:space="preserve"
       style="font-size:12px;font-style:normal;font-weight:normal;fill:#000000;fill-opacity:1;stroke:none;stroke-width:1px;stroke-linecap:butt;stroke-linejoin:miter;stroke-opacity:1;font-family:Bitstream Vera Sans"
       x="380.02069"
       y="548.4035"
       id="text35348"><tspan
         sodipodi:role="line"
         id="tspan35350"
         x="380.02069"
         y="548.4035">Beidha</tspan></text>
    <path
       style="fill:none;fill-rule:evenodd;stroke:#000000;stroke-width:1px;stroke-linecap:butt;stroke-linejoin:miter;stroke-opacity:1"
       d="M 332.16353,489.11779 L 352.16353,494.83208"
       id="path35354" />
    <path
       style="fill:none;fill-rule:evenodd;stroke:#000000;stroke-width:1px;stroke-linecap:butt;stroke-linejoin:miter;stroke-opacity:1"
       d="M 340.02067,474.47494 L 353.94924,487.33208"
       id="path35356" />
    <path
       style="fill:none;fill-rule:evenodd;stroke:#000000;stroke-width:1px;stroke-linecap:butt;stroke-linejoin:miter;stroke-opacity:1"
       d="M 348.5921,460.54636 L 366.0921,478.04636"
       id="path35358" />
    <path
       style="fill:none;fill-rule:evenodd;stroke:#000000;stroke-width:1px;stroke-linecap:butt;stroke-linejoin:miter;stroke-opacity:1"
       d="M 367.87781,452.33208 L 376.0921,467.68922"
       id="path35360" />
  </g>
</svg>
